<mxfile host="www.draw.io" modified="2020-01-12T22:13:37.972Z" agent="Mozilla/5.0 (Windows NT 10.0; Win64; x64) AppleWebKit/537.36 (KHTML, like Gecko) Chrome/79.0.3945.117 Safari/537.36" etag="Y2tef3sX1DtsIs-AnYVK" version="12.5.1" type="github">
  <diagram id="juW5Irxv65KGVfhIOFmc" name="Page-1">
    <mxGraphModel dx="558" dy="618" grid="1" gridSize="10" guides="1" tooltips="1" connect="1" arrows="1" fold="1" page="1" pageScale="1" pageWidth="827" pageHeight="1169" math="1" shadow="0">
      <root>
        <mxCell id="0"/>
        <mxCell id="1" parent="0"/>
        <mxCell id="HKtep2ea5wczlAF2vrhb-115" value="" style="rounded=0;whiteSpace=wrap;html=1;" parent="1" vertex="1">
          <mxGeometry x="1000" y="200" width="120" height="40" as="geometry"/>
        </mxCell>
        <mxCell id="HKtep2ea5wczlAF2vrhb-98" value="" style="rounded=0;whiteSpace=wrap;html=1;" parent="1" vertex="1">
          <mxGeometry x="1000" y="30" width="120" height="40" as="geometry"/>
        </mxCell>
        <mxCell id="HKtep2ea5wczlAF2vrhb-152" value="" style="rounded=0;whiteSpace=wrap;html=1;" parent="1" vertex="1">
          <mxGeometry x="670" y="350" width="620" height="80" as="geometry"/>
        </mxCell>
        <mxCell id="HKtep2ea5wczlAF2vrhb-151" value="" style="rounded=0;whiteSpace=wrap;html=1;" parent="1" vertex="1">
          <mxGeometry x="30" y="350" width="620" height="80" as="geometry"/>
        </mxCell>
        <mxCell id="a6xsnaoRfgEYJW0Wsd5P-3" style="edgeStyle=orthogonalEdgeStyle;rounded=0;orthogonalLoop=1;jettySize=auto;html=1;exitX=1;exitY=1;exitDx=0;exitDy=0;entryX=0.5;entryY=0;entryDx=0;entryDy=0;" parent="1" source="4q0FuRB5-ll7Vcc43Pnx-68" target="4q0FuRB5-ll7Vcc43Pnx-18" edge="1">
          <mxGeometry relative="1" as="geometry"/>
        </mxCell>
        <mxCell id="a6xsnaoRfgEYJW0Wsd5P-5" style="edgeStyle=orthogonalEdgeStyle;rounded=0;orthogonalLoop=1;jettySize=auto;html=1;exitX=0;exitY=1;exitDx=0;exitDy=0;entryX=1;entryY=0.5;entryDx=0;entryDy=0;" parent="1" source="4q0FuRB5-ll7Vcc43Pnx-68" target="4q0FuRB5-ll7Vcc43Pnx-13" edge="1">
          <mxGeometry relative="1" as="geometry">
            <Array as="points">
              <mxPoint x="1120" y="598"/>
              <mxPoint x="1120" y="660"/>
            </Array>
          </mxGeometry>
        </mxCell>
        <mxCell id="4q0FuRB5-ll7Vcc43Pnx-68" value="" style="ellipse;whiteSpace=wrap;html=1;aspect=fixed;" parent="1" vertex="1">
          <mxGeometry x="1195" y="555.14" width="50" height="50" as="geometry"/>
        </mxCell>
        <mxCell id="HKtep2ea5wczlAF2vrhb-148" style="rounded=0;orthogonalLoop=1;jettySize=auto;html=1;exitX=0.5;exitY=1;exitDx=0;exitDy=0;entryX=0.5;entryY=0;entryDx=0;entryDy=0;dashed=1;endArrow=none;endFill=0;" parent="1" source="HKtep2ea5wczlAF2vrhb-2" target="HKtep2ea5wczlAF2vrhb-6" edge="1">
          <mxGeometry relative="1" as="geometry"/>
        </mxCell>
        <mxCell id="HKtep2ea5wczlAF2vrhb-149" style="rounded=0;orthogonalLoop=1;jettySize=auto;html=1;exitX=0.5;exitY=1;exitDx=0;exitDy=0;entryX=0.5;entryY=0;entryDx=0;entryDy=0;dashed=1;endArrow=none;endFill=0;" parent="1" source="HKtep2ea5wczlAF2vrhb-2" target="HKtep2ea5wczlAF2vrhb-43" edge="1">
          <mxGeometry relative="1" as="geometry"/>
        </mxCell>
        <mxCell id="HKtep2ea5wczlAF2vrhb-150" style="rounded=0;orthogonalLoop=1;jettySize=auto;html=1;exitX=0.5;exitY=1;exitDx=0;exitDy=0;dashed=1;endArrow=none;endFill=0;" parent="1" source="HKtep2ea5wczlAF2vrhb-2" target="HKtep2ea5wczlAF2vrhb-7" edge="1">
          <mxGeometry relative="1" as="geometry"/>
        </mxCell>
        <mxCell id="HKtep2ea5wczlAF2vrhb-2" value="`&quot;Start&quot;(0,0)`" style="ellipse;whiteSpace=wrap;html=1;aspect=fixed;" parent="1" vertex="1">
          <mxGeometry x="400" y="120" width="40" height="40" as="geometry"/>
        </mxCell>
        <mxCell id="HKtep2ea5wczlAF2vrhb-6" value="`x,y+1`&lt;br&gt;`=0,1`" style="rounded=0;whiteSpace=wrap;html=1;" parent="1" vertex="1">
          <mxGeometry x="200" y="240" width="120" height="40" as="geometry"/>
        </mxCell>
        <mxCell id="HKtep2ea5wczlAF2vrhb-7" value="&lt;span style=&quot;white-space: normal&quot;&gt;`x-1 mod 3,y`&lt;br&gt;&lt;/span&gt;`=2,0`&lt;span style=&quot;white-space: normal&quot;&gt;&lt;br&gt;&lt;/span&gt;" style="rounded=0;whiteSpace=wrap;html=1;" parent="1" vertex="1">
          <mxGeometry x="360" y="240" width="120" height="40" as="geometry"/>
        </mxCell>
        <mxCell id="HKtep2ea5wczlAF2vrhb-8" value="`(2+1) mod 3,`&lt;br&gt;`=0,0`" style="rounded=0;whiteSpace=wrap;html=1;" parent="1" vertex="1">
          <mxGeometry x="1160" y="360" width="120" height="40" as="geometry"/>
        </mxCell>
        <mxCell id="HKtep2ea5wczlAF2vrhb-9" value="`&quot;goal&quot;(x,y):y=x-1`" style="text;html=1;align=center;verticalAlign=middle;resizable=0;points=[];autosize=1;" parent="1" vertex="1">
          <mxGeometry x="50" y="280" width="110" height="20" as="geometry"/>
        </mxCell>
        <mxCell id="HKtep2ea5wczlAF2vrhb-11" value="goal(0, 0)=&amp;gt; False" style="text;html=1;" parent="1" vertex="1">
          <mxGeometry x="1160" y="400" width="160" height="20" as="geometry"/>
        </mxCell>
        <mxCell id="HKtep2ea5wczlAF2vrhb-154" style="edgeStyle=none;rounded=0;orthogonalLoop=1;jettySize=auto;html=1;exitX=0.5;exitY=1;exitDx=0;exitDy=0;entryX=0.5;entryY=0;entryDx=0;entryDy=0;dashed=1;endArrow=none;endFill=0;" parent="1" source="HKtep2ea5wczlAF2vrhb-12" target="HKtep2ea5wczlAF2vrhb-152" edge="1">
          <mxGeometry relative="1" as="geometry"/>
        </mxCell>
        <mxCell id="HKtep2ea5wczlAF2vrhb-12" value="goal(2, 0)=&amp;gt; False" style="text;html=1;" parent="1" vertex="1">
          <mxGeometry x="360" y="280" width="180" height="30" as="geometry"/>
        </mxCell>
        <mxCell id="HKtep2ea5wczlAF2vrhb-153" style="edgeStyle=none;rounded=0;orthogonalLoop=1;jettySize=auto;html=1;exitX=0.5;exitY=1;exitDx=0;exitDy=0;entryX=0.5;entryY=0;entryDx=0;entryDy=0;dashed=1;endArrow=none;endFill=0;" parent="1" source="HKtep2ea5wczlAF2vrhb-13" target="HKtep2ea5wczlAF2vrhb-151" edge="1">
          <mxGeometry relative="1" as="geometry"/>
        </mxCell>
        <mxCell id="HKtep2ea5wczlAF2vrhb-13" value="goal(0, 1)=&amp;gt; False" style="text;html=1;" parent="1" vertex="1">
          <mxGeometry x="200" y="280" width="120" height="30" as="geometry"/>
        </mxCell>
        <mxCell id="HKtep2ea5wczlAF2vrhb-14" value="&lt;div&gt;`&quot;nf&quot; (x,0) = {(x, y+1), ((x-1) mod m, y), ((x+1) mod m, y)}`&lt;/div&gt;&lt;div&gt;`&quot;nf&quot; (x,n-1) = {((x-1) mod m, y), ((x+1) mod m, y), (x, y-1)}`&lt;/div&gt;&lt;div&gt;`&quot;nf&quot; (x,y) = {(x, y-1), (x, y+1), ((x-1) mod m, y), ((x+1) mod m, y)}`&lt;/div&gt;" style="rounded=0;whiteSpace=wrap;html=1;" parent="1" vertex="1">
          <mxGeometry x="169" width="482" height="60" as="geometry"/>
        </mxCell>
        <mxCell id="HKtep2ea5wczlAF2vrhb-15" value="`&quot;nf&quot;(x,0)`" style="text;html=1;align=center;verticalAlign=middle;resizable=0;points=[];autosize=1;" parent="1" vertex="1">
          <mxGeometry x="30" y="240" width="70" height="20" as="geometry"/>
        </mxCell>
        <mxCell id="HKtep2ea5wczlAF2vrhb-16" value="&lt;div style=&quot;text-align: left&quot;&gt;&lt;/div&gt;" style="text;html=1;align=center;verticalAlign=middle;resizable=0;points=[];autosize=1;" parent="1" vertex="1">
          <mxGeometry x="70" y="365" width="20" height="10" as="geometry"/>
        </mxCell>
        <mxCell id="HKtep2ea5wczlAF2vrhb-17" value="&lt;div style=&quot;text-align: left&quot;&gt;&lt;/div&gt;&lt;span style=&quot;background-color: rgb(255 , 255 , 255)&quot;&gt;&lt;br&gt;&lt;/span&gt;" style="text;html=1;align=center;verticalAlign=middle;resizable=0;points=[];autosize=1;" parent="1" vertex="1">
          <mxGeometry x="75" y="370" width="20" height="20" as="geometry"/>
        </mxCell>
        <mxCell id="HKtep2ea5wczlAF2vrhb-19" value="&lt;div style=&quot;white-space: nowrap ; text-align: left&quot;&gt;&lt;/div&gt;&lt;div style=&quot;white-space: nowrap ; text-align: left&quot;&gt;&lt;span style=&quot;background-color: rgb(255 , 255 , 255)&quot;&gt;`&quot;nf&quot;(0,2-1)`&lt;/span&gt;&lt;/div&gt;" style="text;html=1;strokeColor=none;fillColor=none;align=center;verticalAlign=middle;whiteSpace=wrap;rounded=0;" parent="1" vertex="1">
          <mxGeometry x="40" y="360" width="80" height="20" as="geometry"/>
        </mxCell>
        <mxCell id="HKtep2ea5wczlAF2vrhb-20" value="`(0-1) mod 3, 1`&lt;br&gt;`=2,1`" style="rounded=0;whiteSpace=wrap;html=1;" parent="1" vertex="1">
          <mxGeometry x="200" y="360" width="120" height="40" as="geometry"/>
        </mxCell>
        <mxCell id="HKtep2ea5wczlAF2vrhb-21" value="`(0+1) mod 3, 1`&lt;br&gt;`=1,1`&lt;span style=&quot;white-space: normal&quot;&gt;&lt;br&gt;&lt;/span&gt;" style="rounded=0;whiteSpace=wrap;html=1;" parent="1" vertex="1">
          <mxGeometry x="360" y="360" width="120" height="40" as="geometry"/>
        </mxCell>
        <mxCell id="HKtep2ea5wczlAF2vrhb-22" value="`0, (1-1)`&lt;br&gt;`=0,0`" style="rounded=0;whiteSpace=wrap;html=1;" parent="1" vertex="1">
          <mxGeometry x="520" y="360" width="120" height="40" as="geometry"/>
        </mxCell>
        <mxCell id="HKtep2ea5wczlAF2vrhb-23" value="`&quot;goal&quot;(x,y):y=x-1`" style="text;html=1;align=center;verticalAlign=middle;resizable=0;points=[];autosize=1;" parent="1" vertex="1">
          <mxGeometry x="50" y="400" width="110" height="20" as="geometry"/>
        </mxCell>
        <mxCell id="HKtep2ea5wczlAF2vrhb-24" value="goal(0, 0)=&amp;gt; False" style="text;html=1;" parent="1" vertex="1">
          <mxGeometry x="520" y="400" width="160" height="20" as="geometry"/>
        </mxCell>
        <mxCell id="HKtep2ea5wczlAF2vrhb-25" value="goal(1,1)=&amp;gt; False" style="text;html=1;" parent="1" vertex="1">
          <mxGeometry x="360" y="400" width="180" height="30" as="geometry"/>
        </mxCell>
        <mxCell id="HKtep2ea5wczlAF2vrhb-26" value="goal(0, 1)=&amp;gt; True" style="text;html=1;" parent="1" vertex="1">
          <mxGeometry x="200" y="400" width="120" height="30" as="geometry"/>
        </mxCell>
        <mxCell id="HKtep2ea5wczlAF2vrhb-31" value="&lt;div style=&quot;text-align: left&quot;&gt;&lt;/div&gt;" style="text;html=1;align=center;verticalAlign=middle;resizable=0;points=[];autosize=1;" parent="1" vertex="1">
          <mxGeometry x="710" y="365" width="20" height="10" as="geometry"/>
        </mxCell>
        <mxCell id="HKtep2ea5wczlAF2vrhb-32" value="&lt;div style=&quot;text-align: left&quot;&gt;&lt;/div&gt;&lt;span style=&quot;background-color: rgb(255 , 255 , 255)&quot;&gt;&lt;br&gt;&lt;/span&gt;" style="text;html=1;align=center;verticalAlign=middle;resizable=0;points=[];autosize=1;" parent="1" vertex="1">
          <mxGeometry x="715" y="370" width="20" height="20" as="geometry"/>
        </mxCell>
        <mxCell id="HKtep2ea5wczlAF2vrhb-33" value="&lt;div style=&quot;white-space: nowrap ; text-align: left&quot;&gt;&lt;/div&gt;&lt;div style=&quot;white-space: nowrap ; text-align: left&quot;&gt;&lt;span style=&quot;background-color: rgb(255 , 255 , 255)&quot;&gt;`&quot;nf&quot;(2,0)`&lt;/span&gt;&lt;/div&gt;" style="text;html=1;strokeColor=none;fillColor=none;align=center;verticalAlign=middle;whiteSpace=wrap;rounded=0;" parent="1" vertex="1">
          <mxGeometry x="680" y="360" width="50" height="20" as="geometry"/>
        </mxCell>
        <mxCell id="HKtep2ea5wczlAF2vrhb-35" value="`(2-1) mod 3, 0`&lt;br&gt;`=1,1`&lt;span style=&quot;white-space: normal&quot;&gt;&lt;br&gt;&lt;/span&gt;" style="rounded=0;whiteSpace=wrap;html=1;" parent="1" vertex="1">
          <mxGeometry x="1000" y="360" width="120" height="40" as="geometry"/>
        </mxCell>
        <mxCell id="HKtep2ea5wczlAF2vrhb-37" value="`&quot;goal&quot;(x,y):y=x-1`" style="text;html=1;align=center;verticalAlign=middle;resizable=0;points=[];autosize=1;" parent="1" vertex="1">
          <mxGeometry x="690" y="400" width="110" height="20" as="geometry"/>
        </mxCell>
        <mxCell id="HKtep2ea5wczlAF2vrhb-38" value="goal(1,1)=&amp;gt; False" style="text;html=1;" parent="1" vertex="1">
          <mxGeometry x="1000" y="400" width="180" height="30" as="geometry"/>
        </mxCell>
        <mxCell id="HKtep2ea5wczlAF2vrhb-39" value="goal(2, 1)=&amp;gt; True" style="text;html=1;" parent="1" vertex="1">
          <mxGeometry x="840" y="400" width="120" height="30" as="geometry"/>
        </mxCell>
        <mxCell id="HKtep2ea5wczlAF2vrhb-40" value="`2,0+1`&lt;br&gt;`=2,1`" style="rounded=0;whiteSpace=wrap;html=1;" parent="1" vertex="1">
          <mxGeometry x="840" y="360" width="120" height="40" as="geometry"/>
        </mxCell>
        <mxCell id="HKtep2ea5wczlAF2vrhb-43" value="`x+1 mod 3,y`&lt;br&gt;`=1,0`" style="rounded=0;whiteSpace=wrap;html=1;" parent="1" vertex="1">
          <mxGeometry x="520" y="240" width="120" height="40" as="geometry"/>
        </mxCell>
        <mxCell id="HKtep2ea5wczlAF2vrhb-44" value="goal(1, 0)=&amp;gt; True" style="text;html=1;" parent="1" vertex="1">
          <mxGeometry x="520" y="280" width="160" height="20" as="geometry"/>
        </mxCell>
        <mxCell id="HKtep2ea5wczlAF2vrhb-78" style="rounded=0;orthogonalLoop=1;jettySize=auto;html=1;exitX=0.5;exitY=1;exitDx=0;exitDy=0;entryX=0.5;entryY=0;entryDx=0;entryDy=0;" parent="1" source="HKtep2ea5wczlAF2vrhb-63" target="HKtep2ea5wczlAF2vrhb-64" edge="1">
          <mxGeometry relative="1" as="geometry"/>
        </mxCell>
        <mxCell id="HKtep2ea5wczlAF2vrhb-79" style="edgeStyle=none;rounded=0;orthogonalLoop=1;jettySize=auto;html=1;exitX=0.5;exitY=1;exitDx=0;exitDy=0;entryX=0.5;entryY=0;entryDx=0;entryDy=0;" parent="1" source="HKtep2ea5wczlAF2vrhb-63" target="HKtep2ea5wczlAF2vrhb-66" edge="1">
          <mxGeometry relative="1" as="geometry"/>
        </mxCell>
        <mxCell id="HKtep2ea5wczlAF2vrhb-80" style="edgeStyle=none;rounded=0;orthogonalLoop=1;jettySize=auto;html=1;exitX=0.5;exitY=1;exitDx=0;exitDy=0;" parent="1" source="HKtep2ea5wczlAF2vrhb-63" target="HKtep2ea5wczlAF2vrhb-65" edge="1">
          <mxGeometry relative="1" as="geometry"/>
        </mxCell>
        <mxCell id="HKtep2ea5wczlAF2vrhb-63" value="`0,0`" style="ellipse;whiteSpace=wrap;html=1;aspect=fixed;" parent="1" vertex="1">
          <mxGeometry x="520" y="600" width="40" height="40" as="geometry"/>
        </mxCell>
        <mxCell id="HKtep2ea5wczlAF2vrhb-81" style="edgeStyle=none;rounded=0;orthogonalLoop=1;jettySize=auto;html=1;exitX=0.5;exitY=1;exitDx=0;exitDy=0;entryX=0.5;entryY=0;entryDx=0;entryDy=0;" parent="1" source="HKtep2ea5wczlAF2vrhb-64" target="HKtep2ea5wczlAF2vrhb-68" edge="1">
          <mxGeometry relative="1" as="geometry"/>
        </mxCell>
        <mxCell id="HKtep2ea5wczlAF2vrhb-82" style="edgeStyle=none;rounded=0;orthogonalLoop=1;jettySize=auto;html=1;exitX=0.5;exitY=1;exitDx=0;exitDy=0;entryX=0.5;entryY=0;entryDx=0;entryDy=0;" parent="1" source="HKtep2ea5wczlAF2vrhb-64" target="HKtep2ea5wczlAF2vrhb-69" edge="1">
          <mxGeometry relative="1" as="geometry"/>
        </mxCell>
        <mxCell id="HKtep2ea5wczlAF2vrhb-83" style="edgeStyle=none;rounded=0;orthogonalLoop=1;jettySize=auto;html=1;exitX=0.5;exitY=1;exitDx=0;exitDy=0;entryX=0.5;entryY=0;entryDx=0;entryDy=0;" parent="1" source="HKtep2ea5wczlAF2vrhb-64" target="HKtep2ea5wczlAF2vrhb-70" edge="1">
          <mxGeometry relative="1" as="geometry"/>
        </mxCell>
        <mxCell id="HKtep2ea5wczlAF2vrhb-64" value="`0,1`" style="ellipse;whiteSpace=wrap;html=1;aspect=fixed;" parent="1" vertex="1">
          <mxGeometry x="280" y="680" width="40" height="40" as="geometry"/>
        </mxCell>
        <mxCell id="HKtep2ea5wczlAF2vrhb-84" style="edgeStyle=none;rounded=0;orthogonalLoop=1;jettySize=auto;html=1;entryX=0.5;entryY=0;entryDx=0;entryDy=0;" parent="1" target="HKtep2ea5wczlAF2vrhb-72" edge="1">
          <mxGeometry relative="1" as="geometry">
            <mxPoint x="540" y="720" as="sourcePoint"/>
          </mxGeometry>
        </mxCell>
        <mxCell id="HKtep2ea5wczlAF2vrhb-85" style="edgeStyle=none;rounded=0;orthogonalLoop=1;jettySize=auto;html=1;exitX=0.5;exitY=1;exitDx=0;exitDy=0;entryX=0.5;entryY=0;entryDx=0;entryDy=0;" parent="1" source="HKtep2ea5wczlAF2vrhb-65" target="HKtep2ea5wczlAF2vrhb-73" edge="1">
          <mxGeometry relative="1" as="geometry"/>
        </mxCell>
        <mxCell id="HKtep2ea5wczlAF2vrhb-86" style="edgeStyle=none;rounded=0;orthogonalLoop=1;jettySize=auto;html=1;exitX=0.5;exitY=1;exitDx=0;exitDy=0;entryX=0.5;entryY=0;entryDx=0;entryDy=0;" parent="1" source="HKtep2ea5wczlAF2vrhb-65" target="HKtep2ea5wczlAF2vrhb-74" edge="1">
          <mxGeometry relative="1" as="geometry"/>
        </mxCell>
        <mxCell id="HKtep2ea5wczlAF2vrhb-65" value="`2,0`" style="ellipse;whiteSpace=wrap;html=1;aspect=fixed;" parent="1" vertex="1">
          <mxGeometry x="520" y="680" width="40" height="40" as="geometry"/>
        </mxCell>
        <mxCell id="HKtep2ea5wczlAF2vrhb-66" value="`1,0`" style="ellipse;whiteSpace=wrap;html=1;aspect=fixed;" parent="1" vertex="1">
          <mxGeometry x="760" y="680" width="40" height="40" as="geometry"/>
        </mxCell>
        <mxCell id="HKtep2ea5wczlAF2vrhb-68" value="`2,1`" style="ellipse;whiteSpace=wrap;html=1;aspect=fixed;" parent="1" vertex="1">
          <mxGeometry x="200" y="760" width="40" height="40" as="geometry"/>
        </mxCell>
        <mxCell id="HKtep2ea5wczlAF2vrhb-90" style="edgeStyle=none;rounded=0;orthogonalLoop=1;jettySize=auto;html=1;exitX=0.5;exitY=1;exitDx=0;exitDy=0;entryX=0.5;entryY=0;entryDx=0;entryDy=0;" parent="1" source="HKtep2ea5wczlAF2vrhb-69" target="HKtep2ea5wczlAF2vrhb-87" edge="1">
          <mxGeometry relative="1" as="geometry"/>
        </mxCell>
        <mxCell id="HKtep2ea5wczlAF2vrhb-91" style="edgeStyle=none;rounded=0;orthogonalLoop=1;jettySize=auto;html=1;exitX=0.5;exitY=1;exitDx=0;exitDy=0;" parent="1" source="HKtep2ea5wczlAF2vrhb-69" target="HKtep2ea5wczlAF2vrhb-88" edge="1">
          <mxGeometry relative="1" as="geometry"/>
        </mxCell>
        <mxCell id="HKtep2ea5wczlAF2vrhb-92" style="edgeStyle=none;rounded=0;orthogonalLoop=1;jettySize=auto;html=1;exitX=0.5;exitY=1;exitDx=0;exitDy=0;entryX=0.5;entryY=0;entryDx=0;entryDy=0;" parent="1" source="HKtep2ea5wczlAF2vrhb-69" target="HKtep2ea5wczlAF2vrhb-89" edge="1">
          <mxGeometry relative="1" as="geometry"/>
        </mxCell>
        <mxCell id="HKtep2ea5wczlAF2vrhb-69" value="`1,1`" style="ellipse;whiteSpace=wrap;html=1;aspect=fixed;" parent="1" vertex="1">
          <mxGeometry x="280" y="760" width="40" height="40" as="geometry"/>
        </mxCell>
        <mxCell id="HKtep2ea5wczlAF2vrhb-174" style="edgeStyle=orthogonalEdgeStyle;rounded=0;orthogonalLoop=1;jettySize=auto;html=1;exitX=1;exitY=0.5;exitDx=0;exitDy=0;entryX=0.5;entryY=0;entryDx=0;entryDy=0;endArrow=classic;endFill=1;dashed=1;" parent="1" source="HKtep2ea5wczlAF2vrhb-70" target="HKtep2ea5wczlAF2vrhb-63" edge="1">
          <mxGeometry relative="1" as="geometry">
            <Array as="points">
              <mxPoint x="420" y="780"/>
              <mxPoint x="420" y="580"/>
              <mxPoint x="540" y="580"/>
            </Array>
          </mxGeometry>
        </mxCell>
        <mxCell id="HKtep2ea5wczlAF2vrhb-70" value="`0,0`" style="ellipse;whiteSpace=wrap;html=1;aspect=fixed;" parent="1" vertex="1">
          <mxGeometry x="360" y="760" width="40" height="40" as="geometry"/>
        </mxCell>
        <mxCell id="HKtep2ea5wczlAF2vrhb-72" value="`2,1`" style="ellipse;whiteSpace=wrap;html=1;aspect=fixed;" parent="1" vertex="1">
          <mxGeometry x="440" y="760" width="40" height="40" as="geometry"/>
        </mxCell>
        <mxCell id="HKtep2ea5wczlAF2vrhb-73" value="`1,0`" style="ellipse;whiteSpace=wrap;html=1;aspect=fixed;" parent="1" vertex="1">
          <mxGeometry x="520" y="760" width="40" height="40" as="geometry"/>
        </mxCell>
        <mxCell id="HKtep2ea5wczlAF2vrhb-161" style="edgeStyle=orthogonalEdgeStyle;rounded=0;orthogonalLoop=1;jettySize=auto;html=1;exitX=1;exitY=0.5;exitDx=0;exitDy=0;entryX=0.5;entryY=0;entryDx=0;entryDy=0;dashed=1;endArrow=classic;endFill=1;" parent="1" source="HKtep2ea5wczlAF2vrhb-74" target="HKtep2ea5wczlAF2vrhb-63" edge="1">
          <mxGeometry relative="1" as="geometry">
            <Array as="points">
              <mxPoint x="660" y="780"/>
              <mxPoint x="660" y="580"/>
              <mxPoint x="540" y="580"/>
            </Array>
          </mxGeometry>
        </mxCell>
        <mxCell id="HKtep2ea5wczlAF2vrhb-171" style="rounded=0;orthogonalLoop=1;jettySize=auto;html=1;exitX=0.5;exitY=1;exitDx=0;exitDy=0;entryX=0.5;entryY=0;entryDx=0;entryDy=0;endArrow=classic;endFill=1;opacity=40;" parent="1" source="HKtep2ea5wczlAF2vrhb-74" target="HKtep2ea5wczlAF2vrhb-163" edge="1">
          <mxGeometry relative="1" as="geometry"/>
        </mxCell>
        <mxCell id="HKtep2ea5wczlAF2vrhb-172" style="rounded=0;orthogonalLoop=1;jettySize=auto;html=1;exitX=0.5;exitY=1;exitDx=0;exitDy=0;entryX=0.5;entryY=0;entryDx=0;entryDy=0;endArrow=classic;endFill=1;opacity=40;" parent="1" source="HKtep2ea5wczlAF2vrhb-74" target="HKtep2ea5wczlAF2vrhb-167" edge="1">
          <mxGeometry relative="1" as="geometry"/>
        </mxCell>
        <mxCell id="HKtep2ea5wczlAF2vrhb-173" style="rounded=0;orthogonalLoop=1;jettySize=auto;html=1;exitX=0.5;exitY=1;exitDx=0;exitDy=0;entryX=0.5;entryY=0;entryDx=0;entryDy=0;endArrow=classic;endFill=1;opacity=40;" parent="1" source="HKtep2ea5wczlAF2vrhb-74" target="HKtep2ea5wczlAF2vrhb-165" edge="1">
          <mxGeometry relative="1" as="geometry"/>
        </mxCell>
        <mxCell id="HKtep2ea5wczlAF2vrhb-74" value="`0,0`" style="ellipse;whiteSpace=wrap;html=1;aspect=fixed;" parent="1" vertex="1">
          <mxGeometry x="600" y="760" width="40" height="40" as="geometry"/>
        </mxCell>
        <mxCell id="HKtep2ea5wczlAF2vrhb-182" style="edgeStyle=orthogonalEdgeStyle;rounded=0;orthogonalLoop=1;jettySize=auto;html=1;exitX=0;exitY=0.5;exitDx=0;exitDy=0;entryX=0;entryY=0.5;entryDx=0;entryDy=0;entryPerimeter=0;dashed=1;endArrow=classic;endFill=1;opacity=50;" parent="1" source="HKtep2ea5wczlAF2vrhb-87" target="HKtep2ea5wczlAF2vrhb-127" edge="1">
          <mxGeometry relative="1" as="geometry">
            <Array as="points">
              <mxPoint x="160" y="860"/>
              <mxPoint x="160" y="700"/>
            </Array>
          </mxGeometry>
        </mxCell>
        <mxCell id="HKtep2ea5wczlAF2vrhb-87" value="`0,1`" style="ellipse;whiteSpace=wrap;html=1;aspect=fixed;" parent="1" vertex="1">
          <mxGeometry x="200" y="840" width="40" height="40" as="geometry"/>
        </mxCell>
        <mxCell id="HKtep2ea5wczlAF2vrhb-125" style="edgeStyle=none;rounded=0;orthogonalLoop=1;jettySize=auto;html=1;exitX=0.5;exitY=1;exitDx=0;exitDy=0;" parent="1" source="HKtep2ea5wczlAF2vrhb-88" target="HKtep2ea5wczlAF2vrhb-124" edge="1">
          <mxGeometry relative="1" as="geometry"/>
        </mxCell>
        <mxCell id="HKtep2ea5wczlAF2vrhb-88" value="`2,1`" style="ellipse;whiteSpace=wrap;html=1;aspect=fixed;" parent="1" vertex="1">
          <mxGeometry x="280" y="840" width="40" height="40" as="geometry"/>
        </mxCell>
        <mxCell id="HKtep2ea5wczlAF2vrhb-145" style="edgeStyle=none;rounded=0;orthogonalLoop=1;jettySize=auto;html=1;exitX=0.5;exitY=1;exitDx=0;exitDy=0;" parent="1" source="HKtep2ea5wczlAF2vrhb-89" target="HKtep2ea5wczlAF2vrhb-144" edge="1">
          <mxGeometry relative="1" as="geometry"/>
        </mxCell>
        <mxCell id="HKtep2ea5wczlAF2vrhb-89" value="`1,0`" style="ellipse;whiteSpace=wrap;html=1;aspect=fixed;" parent="1" vertex="1">
          <mxGeometry x="360" y="840" width="40" height="40" as="geometry"/>
        </mxCell>
        <mxCell id="HKtep2ea5wczlAF2vrhb-93" value="`&quot;Case 1: &quot;&quot;nf&quot;(x,0)`" style="text;html=1;align=center;verticalAlign=middle;resizable=0;points=[];autosize=1;" parent="1" vertex="1">
          <mxGeometry x="1000" y="40" width="120" height="20" as="geometry"/>
        </mxCell>
        <mxCell id="HKtep2ea5wczlAF2vrhb-103" style="edgeStyle=none;rounded=0;orthogonalLoop=1;jettySize=auto;html=1;exitX=0.5;exitY=1;exitDx=0;exitDy=0;entryX=0.5;entryY=0;entryDx=0;entryDy=0;" parent="1" source="HKtep2ea5wczlAF2vrhb-98" target="HKtep2ea5wczlAF2vrhb-100" edge="1">
          <mxGeometry relative="1" as="geometry"/>
        </mxCell>
        <mxCell id="HKtep2ea5wczlAF2vrhb-104" style="edgeStyle=none;rounded=0;orthogonalLoop=1;jettySize=auto;html=1;exitX=0.5;exitY=1;exitDx=0;exitDy=0;entryX=0.5;entryY=0;entryDx=0;entryDy=0;" parent="1" source="HKtep2ea5wczlAF2vrhb-98" target="HKtep2ea5wczlAF2vrhb-101" edge="1">
          <mxGeometry relative="1" as="geometry"/>
        </mxCell>
        <mxCell id="HKtep2ea5wczlAF2vrhb-105" style="edgeStyle=none;rounded=0;orthogonalLoop=1;jettySize=auto;html=1;exitX=0.5;exitY=1;exitDx=0;exitDy=0;entryX=0.5;entryY=0;entryDx=0;entryDy=0;" parent="1" source="HKtep2ea5wczlAF2vrhb-98" target="HKtep2ea5wczlAF2vrhb-102" edge="1">
          <mxGeometry relative="1" as="geometry"/>
        </mxCell>
        <mxCell id="HKtep2ea5wczlAF2vrhb-100" value="`x,(y+1)`" style="rounded=0;whiteSpace=wrap;html=1;" parent="1" vertex="1">
          <mxGeometry x="840" y="120" width="120" height="40" as="geometry"/>
        </mxCell>
        <mxCell id="HKtep2ea5wczlAF2vrhb-101" value="&lt;span style=&quot;white-space: normal&quot;&gt;`x-1 mod 3,y`&lt;/span&gt;&lt;span style=&quot;white-space: normal&quot;&gt;&lt;br&gt;&lt;/span&gt;" style="rounded=0;whiteSpace=wrap;html=1;" parent="1" vertex="1">
          <mxGeometry x="1000" y="120" width="120" height="40" as="geometry"/>
        </mxCell>
        <mxCell id="HKtep2ea5wczlAF2vrhb-102" value="`x+1 mod 3,y`" style="rounded=0;whiteSpace=wrap;html=1;" parent="1" vertex="1">
          <mxGeometry x="1160" y="120" width="120" height="40" as="geometry"/>
        </mxCell>
        <mxCell id="HKtep2ea5wczlAF2vrhb-114" value="`&quot;Case 2: &quot;&quot;nf&quot;(x,n-1)`" style="text;html=1;align=center;verticalAlign=middle;resizable=0;points=[];autosize=1;" parent="1" vertex="1">
          <mxGeometry x="995" y="210" width="130" height="20" as="geometry"/>
        </mxCell>
        <mxCell id="HKtep2ea5wczlAF2vrhb-119" style="edgeStyle=none;rounded=0;orthogonalLoop=1;jettySize=auto;html=1;exitX=0.5;exitY=1;exitDx=0;exitDy=0;entryX=0.5;entryY=0;entryDx=0;entryDy=0;" parent="1" source="HKtep2ea5wczlAF2vrhb-115" target="HKtep2ea5wczlAF2vrhb-116" edge="1">
          <mxGeometry relative="1" as="geometry"/>
        </mxCell>
        <mxCell id="HKtep2ea5wczlAF2vrhb-120" style="edgeStyle=none;rounded=0;orthogonalLoop=1;jettySize=auto;html=1;exitX=0.5;exitY=1;exitDx=0;exitDy=0;entryX=0.5;entryY=0;entryDx=0;entryDy=0;" parent="1" source="HKtep2ea5wczlAF2vrhb-115" target="HKtep2ea5wczlAF2vrhb-117" edge="1">
          <mxGeometry relative="1" as="geometry"/>
        </mxCell>
        <mxCell id="HKtep2ea5wczlAF2vrhb-121" style="edgeStyle=none;rounded=0;orthogonalLoop=1;jettySize=auto;html=1;exitX=0.5;exitY=1;exitDx=0;exitDy=0;entryX=0.5;entryY=0;entryDx=0;entryDy=0;" parent="1" source="HKtep2ea5wczlAF2vrhb-115" target="HKtep2ea5wczlAF2vrhb-118" edge="1">
          <mxGeometry relative="1" as="geometry"/>
        </mxCell>
        <mxCell id="HKtep2ea5wczlAF2vrhb-116" value="`(x-1) mod 3, 1`" style="rounded=0;whiteSpace=wrap;html=1;" parent="1" vertex="1">
          <mxGeometry x="840" y="280" width="120" height="40" as="geometry"/>
        </mxCell>
        <mxCell id="HKtep2ea5wczlAF2vrhb-117" value="`(x+1) mod 3, 1`&lt;span style=&quot;white-space: normal&quot;&gt;&lt;br&gt;&lt;/span&gt;" style="rounded=0;whiteSpace=wrap;html=1;" parent="1" vertex="1">
          <mxGeometry x="1000" y="280" width="120" height="40" as="geometry"/>
        </mxCell>
        <mxCell id="HKtep2ea5wczlAF2vrhb-118" value="`x, (y-1)`" style="rounded=0;whiteSpace=wrap;html=1;" parent="1" vertex="1">
          <mxGeometry x="1160" y="280" width="120" height="40" as="geometry"/>
        </mxCell>
        <mxCell id="HKtep2ea5wczlAF2vrhb-124" value="`&quot;True&quot;`" style="text;html=1;align=center;verticalAlign=middle;resizable=0;points=[];autosize=1;" parent="1" vertex="1">
          <mxGeometry x="270" y="920" width="60" height="20" as="geometry"/>
        </mxCell>
        <mxCell id="HKtep2ea5wczlAF2vrhb-128" value="`&quot;True&quot;`" style="text;html=1;align=center;verticalAlign=middle;resizable=0;points=[];autosize=1;" parent="1" vertex="1">
          <mxGeometry x="710" y="690" width="60" height="20" as="geometry"/>
        </mxCell>
        <mxCell id="HKtep2ea5wczlAF2vrhb-132" value="`&quot;Case 1&quot;`" style="text;html=1;align=center;verticalAlign=middle;resizable=0;points=[];autosize=1;" parent="1" vertex="1">
          <mxGeometry x="460" y="690" width="70" height="20" as="geometry"/>
        </mxCell>
        <mxCell id="HKtep2ea5wczlAF2vrhb-133" value="`&quot;True&quot;`" style="text;html=1;align=center;verticalAlign=middle;resizable=0;points=[];autosize=1;" parent="1" vertex="1">
          <mxGeometry x="150" y="770" width="60" height="20" as="geometry"/>
        </mxCell>
        <mxCell id="HKtep2ea5wczlAF2vrhb-135" value="`&quot;C 2&quot;`" style="text;html=1;align=center;verticalAlign=middle;resizable=0;points=[];autosize=1;" parent="1" vertex="1">
          <mxGeometry x="240" y="770" width="50" height="20" as="geometry"/>
        </mxCell>
        <mxCell id="HKtep2ea5wczlAF2vrhb-138" value="`&quot;C 1&quot;`" style="text;html=1;align=center;verticalAlign=middle;resizable=0;points=[];autosize=1;" parent="1" vertex="1">
          <mxGeometry x="321" y="770" width="50" height="20" as="geometry"/>
        </mxCell>
        <mxCell id="HKtep2ea5wczlAF2vrhb-140" value="`&quot;T&quot;`" style="text;html=1;align=center;verticalAlign=middle;resizable=0;points=[];autosize=1;" parent="1" vertex="1">
          <mxGeometry x="410" y="770" width="40" height="20" as="geometry"/>
        </mxCell>
        <mxCell id="HKtep2ea5wczlAF2vrhb-142" value="`&quot;T&quot;`" style="text;html=1;align=center;verticalAlign=middle;resizable=0;points=[];autosize=1;" parent="1" vertex="1">
          <mxGeometry x="485" y="770" width="40" height="20" as="geometry"/>
        </mxCell>
        <mxCell id="HKtep2ea5wczlAF2vrhb-143" value="`&quot;C 1&quot;`" style="text;html=1;align=center;verticalAlign=middle;resizable=0;points=[];autosize=1;" parent="1" vertex="1">
          <mxGeometry x="560" y="770" width="50" height="20" as="geometry"/>
        </mxCell>
        <mxCell id="HKtep2ea5wczlAF2vrhb-144" value="`&quot;True&quot;`" style="text;html=1;align=center;verticalAlign=middle;resizable=0;points=[];autosize=1;" parent="1" vertex="1">
          <mxGeometry x="350" y="920" width="60" height="20" as="geometry"/>
        </mxCell>
        <mxCell id="HKtep2ea5wczlAF2vrhb-158" value="`&quot;Case 1&quot;`" style="text;html=1;align=center;verticalAlign=middle;resizable=0;points=[];autosize=1;" parent="1" vertex="1">
          <mxGeometry x="460" y="610" width="70" height="20" as="geometry"/>
        </mxCell>
        <mxCell id="HKtep2ea5wczlAF2vrhb-162" style="edgeStyle=none;rounded=0;orthogonalLoop=1;jettySize=auto;html=1;exitX=0.5;exitY=1;exitDx=0;exitDy=0;opacity=40;" parent="1" source="HKtep2ea5wczlAF2vrhb-163" edge="1">
          <mxGeometry relative="1" as="geometry">
            <mxPoint x="540" y="920" as="targetPoint"/>
          </mxGeometry>
        </mxCell>
        <mxCell id="4q0FuRB5-ll7Vcc43Pnx-1" style="edgeStyle=orthogonalEdgeStyle;rounded=0;orthogonalLoop=1;jettySize=auto;html=1;exitX=0;exitY=0.5;exitDx=0;exitDy=0;entryX=0;entryY=0.5;entryDx=0;entryDy=0;entryPerimeter=0;dashed=1;opacity=40;" parent="1" source="HKtep2ea5wczlAF2vrhb-163" target="HKtep2ea5wczlAF2vrhb-127" edge="1">
          <mxGeometry relative="1" as="geometry">
            <Array as="points">
              <mxPoint x="510" y="860"/>
              <mxPoint x="510" y="960"/>
              <mxPoint x="160" y="960"/>
              <mxPoint x="160" y="700"/>
            </Array>
          </mxGeometry>
        </mxCell>
        <mxCell id="HKtep2ea5wczlAF2vrhb-163" value="`0,1`" style="ellipse;whiteSpace=wrap;html=1;aspect=fixed;opacity=40;" parent="1" vertex="1">
          <mxGeometry x="520" y="840" width="40" height="40" as="geometry"/>
        </mxCell>
        <mxCell id="HKtep2ea5wczlAF2vrhb-164" style="edgeStyle=none;rounded=0;orthogonalLoop=1;jettySize=auto;html=1;exitX=0.5;exitY=1;exitDx=0;exitDy=0;opacity=40;" parent="1" source="HKtep2ea5wczlAF2vrhb-165" target="HKtep2ea5wczlAF2vrhb-169" edge="1">
          <mxGeometry relative="1" as="geometry"/>
        </mxCell>
        <mxCell id="4q0FuRB5-ll7Vcc43Pnx-2" style="edgeStyle=orthogonalEdgeStyle;rounded=0;orthogonalLoop=1;jettySize=auto;html=1;exitX=1;exitY=0.5;exitDx=0;exitDy=0;entryX=1;entryY=0.5;entryDx=0;entryDy=0;dashed=1;opacity=40;" parent="1" source="HKtep2ea5wczlAF2vrhb-165" target="HKtep2ea5wczlAF2vrhb-65" edge="1">
          <mxGeometry relative="1" as="geometry">
            <Array as="points">
              <mxPoint x="650" y="860"/>
              <mxPoint x="650" y="700"/>
            </Array>
          </mxGeometry>
        </mxCell>
        <mxCell id="HKtep2ea5wczlAF2vrhb-165" value="`2,0`" style="ellipse;whiteSpace=wrap;html=1;aspect=fixed;opacity=40;" parent="1" vertex="1">
          <mxGeometry x="600" y="840" width="40" height="40" as="geometry"/>
        </mxCell>
        <mxCell id="HKtep2ea5wczlAF2vrhb-166" style="edgeStyle=none;rounded=0;orthogonalLoop=1;jettySize=auto;html=1;exitX=0.5;exitY=1;exitDx=0;exitDy=0;opacity=40;" parent="1" source="HKtep2ea5wczlAF2vrhb-167" target="HKtep2ea5wczlAF2vrhb-170" edge="1">
          <mxGeometry relative="1" as="geometry"/>
        </mxCell>
        <mxCell id="HKtep2ea5wczlAF2vrhb-167" value="`1,0`" style="ellipse;whiteSpace=wrap;html=1;aspect=fixed;opacity=40;" parent="1" vertex="1">
          <mxGeometry x="680" y="840" width="40" height="40" as="geometry"/>
        </mxCell>
        <mxCell id="HKtep2ea5wczlAF2vrhb-168" value="`&quot;Case 2&quot;`" style="text;html=1;align=center;verticalAlign=middle;resizable=0;points=[];autosize=1;opacity=40;" parent="1" vertex="1">
          <mxGeometry x="505" y="920" width="70" height="20" as="geometry"/>
        </mxCell>
        <mxCell id="HKtep2ea5wczlAF2vrhb-169" value="`&quot;Case &quot;1`" style="text;html=1;align=center;verticalAlign=middle;resizable=0;points=[];autosize=1;opacity=40;" parent="1" vertex="1">
          <mxGeometry x="585" y="920" width="70" height="20" as="geometry"/>
        </mxCell>
        <mxCell id="HKtep2ea5wczlAF2vrhb-170" value="`&quot;True&quot;`" style="text;html=1;align=center;verticalAlign=middle;resizable=0;points=[];autosize=1;opacity=40;" parent="1" vertex="1">
          <mxGeometry x="670" y="920" width="60" height="20" as="geometry"/>
        </mxCell>
        <mxCell id="HKtep2ea5wczlAF2vrhb-175" value="`&quot;Case &quot;1-&amp;gt;`&lt;br&gt;`&quot;Case &quot;2-&amp;gt;`&lt;br&gt;`&quot;Case &quot;3-&amp;gt;`" style="rounded=0;whiteSpace=wrap;html=1;" parent="1" vertex="1">
          <mxGeometry x="39" width="120" height="60" as="geometry"/>
        </mxCell>
        <mxCell id="HKtep2ea5wczlAF2vrhb-127" value="`&quot;Case 2&quot;`" style="text;html=1;align=center;verticalAlign=middle;resizable=0;points=[];autosize=1;" parent="1" vertex="1">
          <mxGeometry x="220" y="690" width="70" height="20" as="geometry"/>
        </mxCell>
        <mxCell id="4q0FuRB5-ll7Vcc43Pnx-8" style="edgeStyle=none;rounded=0;orthogonalLoop=1;jettySize=auto;html=1;exitX=0.5;exitY=1;exitDx=0;exitDy=0;" parent="1" source="4q0FuRB5-ll7Vcc43Pnx-9" target="4q0FuRB5-ll7Vcc43Pnx-17" edge="1">
          <mxGeometry relative="1" as="geometry"/>
        </mxCell>
        <mxCell id="4q0FuRB5-ll7Vcc43Pnx-9" value="`0,0`" style="ellipse;whiteSpace=wrap;html=1;aspect=fixed;" parent="1" vertex="1">
          <mxGeometry x="1200" y="560.14" width="40" height="40" as="geometry"/>
        </mxCell>
        <mxCell id="4q0FuRB5-ll7Vcc43Pnx-11" style="edgeStyle=orthogonalEdgeStyle;rounded=0;orthogonalLoop=1;jettySize=auto;html=1;entryX=0.5;entryY=0;entryDx=0;entryDy=0;" parent="1" target="4q0FuRB5-ll7Vcc43Pnx-23" edge="1">
          <mxGeometry relative="1" as="geometry">
            <mxPoint x="980" y="680" as="sourcePoint"/>
          </mxGeometry>
        </mxCell>
        <mxCell id="a6xsnaoRfgEYJW0Wsd5P-1" style="edgeStyle=orthogonalEdgeStyle;rounded=0;orthogonalLoop=1;jettySize=auto;html=1;exitX=1;exitY=1;exitDx=0;exitDy=0;entryX=0;entryY=0;entryDx=0;entryDy=0;" parent="1" source="4q0FuRB5-ll7Vcc43Pnx-13" target="4q0FuRB5-ll7Vcc43Pnx-9" edge="1">
          <mxGeometry relative="1" as="geometry">
            <Array as="points">
              <mxPoint x="994" y="560"/>
              <mxPoint x="1206" y="560"/>
            </Array>
          </mxGeometry>
        </mxCell>
        <mxCell id="a6xsnaoRfgEYJW0Wsd5P-9" style="edgeStyle=orthogonalEdgeStyle;rounded=0;orthogonalLoop=1;jettySize=auto;html=1;exitX=1;exitY=1;exitDx=0;exitDy=0;entryX=0;entryY=0;entryDx=0;entryDy=0;" parent="1" source="4q0FuRB5-ll7Vcc43Pnx-13" target="4q0FuRB5-ll7Vcc43Pnx-26" edge="1">
          <mxGeometry relative="1" as="geometry">
            <Array as="points">
              <mxPoint x="994" y="700"/>
              <mxPoint x="1206" y="700"/>
            </Array>
          </mxGeometry>
        </mxCell>
        <mxCell id="4q0FuRB5-ll7Vcc43Pnx-13" value="`0,1`" style="ellipse;whiteSpace=wrap;html=1;aspect=fixed;" parent="1" vertex="1">
          <mxGeometry x="960" y="640.14" width="40" height="40" as="geometry"/>
        </mxCell>
        <mxCell id="a6xsnaoRfgEYJW0Wsd5P-2" style="edgeStyle=orthogonalEdgeStyle;rounded=0;orthogonalLoop=1;jettySize=auto;html=1;exitX=1;exitY=0;exitDx=0;exitDy=0;entryX=0.5;entryY=0;entryDx=0;entryDy=0;" parent="1" source="4q0FuRB5-ll7Vcc43Pnx-17" target="4q0FuRB5-ll7Vcc43Pnx-68" edge="1">
          <mxGeometry relative="1" as="geometry"/>
        </mxCell>
        <mxCell id="a6xsnaoRfgEYJW0Wsd5P-4" style="edgeStyle=orthogonalEdgeStyle;rounded=0;orthogonalLoop=1;jettySize=auto;html=1;exitX=1;exitY=0.5;exitDx=0;exitDy=0;entryX=0;entryY=0;entryDx=0;entryDy=0;" parent="1" source="4q0FuRB5-ll7Vcc43Pnx-17" target="4q0FuRB5-ll7Vcc43Pnx-18" edge="1">
          <mxGeometry relative="1" as="geometry"/>
        </mxCell>
        <mxCell id="tG_x5YlyOaRy63e67eoN-1" style="edgeStyle=orthogonalEdgeStyle;rounded=0;orthogonalLoop=1;jettySize=auto;html=1;exitX=0.5;exitY=1;exitDx=0;exitDy=0;entryX=0.5;entryY=0;entryDx=0;entryDy=0;" parent="1" source="4q0FuRB5-ll7Vcc43Pnx-17" target="4q0FuRB5-ll7Vcc43Pnx-26" edge="1">
          <mxGeometry relative="1" as="geometry"/>
        </mxCell>
        <mxCell id="4q0FuRB5-ll7Vcc43Pnx-17" value="`2,0`" style="ellipse;whiteSpace=wrap;html=1;aspect=fixed;" parent="1" vertex="1">
          <mxGeometry x="1200" y="640.14" width="40" height="40" as="geometry"/>
        </mxCell>
        <mxCell id="4q0FuRB5-ll7Vcc43Pnx-18" value="`1,0`" style="ellipse;whiteSpace=wrap;html=1;aspect=fixed;" parent="1" vertex="1">
          <mxGeometry x="1360" y="640.14" width="40" height="40" as="geometry"/>
        </mxCell>
        <mxCell id="a6xsnaoRfgEYJW0Wsd5P-7" style="edgeStyle=orthogonalEdgeStyle;rounded=0;orthogonalLoop=1;jettySize=auto;html=1;exitX=0;exitY=1;exitDx=0;exitDy=0;entryX=0;entryY=0;entryDx=0;entryDy=0;" parent="1" source="4q0FuRB5-ll7Vcc43Pnx-23" target="4q0FuRB5-ll7Vcc43Pnx-13" edge="1">
          <mxGeometry relative="1" as="geometry">
            <Array as="points">
              <mxPoint x="966" y="780"/>
              <mxPoint x="910" y="780"/>
              <mxPoint x="910" y="646"/>
            </Array>
          </mxGeometry>
        </mxCell>
        <mxCell id="a6xsnaoRfgEYJW0Wsd5P-8" style="edgeStyle=orthogonalEdgeStyle;rounded=0;orthogonalLoop=1;jettySize=auto;html=1;exitX=1;exitY=1;exitDx=0;exitDy=0;entryX=0.5;entryY=1;entryDx=0;entryDy=0;" parent="1" source="4q0FuRB5-ll7Vcc43Pnx-23" target="4q0FuRB5-ll7Vcc43Pnx-18" edge="1">
          <mxGeometry relative="1" as="geometry">
            <Array as="points">
              <mxPoint x="994" y="770"/>
              <mxPoint x="1380" y="770"/>
            </Array>
          </mxGeometry>
        </mxCell>
        <mxCell id="a6xsnaoRfgEYJW0Wsd5P-10" style="edgeStyle=orthogonalEdgeStyle;rounded=0;orthogonalLoop=1;jettySize=auto;html=1;exitX=1;exitY=0.5;exitDx=0;exitDy=0;entryX=0;entryY=1;entryDx=0;entryDy=0;" parent="1" source="4q0FuRB5-ll7Vcc43Pnx-23" target="4q0FuRB5-ll7Vcc43Pnx-26" edge="1">
          <mxGeometry relative="1" as="geometry"/>
        </mxCell>
        <mxCell id="4q0FuRB5-ll7Vcc43Pnx-23" value="`1,1`" style="ellipse;whiteSpace=wrap;html=1;aspect=fixed;" parent="1" vertex="1">
          <mxGeometry x="960" y="720.14" width="40" height="40" as="geometry"/>
        </mxCell>
        <mxCell id="4q0FuRB5-ll7Vcc43Pnx-26" value="`2,1`" style="ellipse;whiteSpace=wrap;html=1;aspect=fixed;" parent="1" vertex="1">
          <mxGeometry x="1200" y="720" width="40" height="40" as="geometry"/>
        </mxCell>
        <mxCell id="4q0FuRB5-ll7Vcc43Pnx-40" value="`&quot;True&quot;`" style="text;html=1;align=center;verticalAlign=middle;resizable=0;points=[];autosize=1;" parent="1" vertex="1">
          <mxGeometry x="1310" y="650.14" width="60" height="20" as="geometry"/>
        </mxCell>
        <mxCell id="4q0FuRB5-ll7Vcc43Pnx-41" value="`&quot;Case 1&quot;`" style="text;html=1;align=center;verticalAlign=middle;resizable=0;points=[];autosize=1;" parent="1" vertex="1">
          <mxGeometry x="1140" y="650.14" width="70" height="20" as="geometry"/>
        </mxCell>
        <mxCell id="4q0FuRB5-ll7Vcc43Pnx-49" value="`&quot;Case 1&quot;`" style="text;html=1;align=center;verticalAlign=middle;resizable=0;points=[];autosize=1;" parent="1" vertex="1">
          <mxGeometry x="1140" y="570.14" width="70" height="20" as="geometry"/>
        </mxCell>
        <mxCell id="4q0FuRB5-ll7Vcc43Pnx-61" value="`&quot;Case 2&quot;`" style="text;html=1;align=center;verticalAlign=middle;resizable=0;points=[];autosize=1;" parent="1" vertex="1">
          <mxGeometry x="900" y="650.14" width="70" height="20" as="geometry"/>
        </mxCell>
        <mxCell id="4q0FuRB5-ll7Vcc43Pnx-65" value="`&quot;True&quot;`" style="text;html=1;align=center;verticalAlign=middle;resizable=0;points=[];autosize=1;" parent="1" vertex="1">
          <mxGeometry x="1150" y="730.14" width="60" height="20" as="geometry"/>
        </mxCell>
        <mxCell id="a6xsnaoRfgEYJW0Wsd5P-11" value="`&quot;Case 2&quot;`" style="text;html=1;align=center;verticalAlign=middle;resizable=0;points=[];autosize=1;" parent="1" vertex="1">
          <mxGeometry x="900" y="730.14" width="70" height="20" as="geometry"/>
        </mxCell>
        <mxCell id="bNzYxfVtxM2UdrxvkIZM-1" style="rounded=0;orthogonalLoop=1;jettySize=auto;html=1;exitX=0.5;exitY=1;exitDx=0;exitDy=0;entryX=0.5;entryY=0;entryDx=0;entryDy=0;fontSize=11;" edge="1" parent="1" source="bNzYxfVtxM2UdrxvkIZM-4" target="bNzYxfVtxM2UdrxvkIZM-8">
          <mxGeometry relative="1" as="geometry"/>
        </mxCell>
        <mxCell id="bNzYxfVtxM2UdrxvkIZM-2" style="edgeStyle=none;rounded=0;orthogonalLoop=1;jettySize=auto;html=1;exitX=0.5;exitY=1;exitDx=0;exitDy=0;entryX=0.5;entryY=0;entryDx=0;entryDy=0;fontSize=11;" edge="1" parent="1" source="bNzYxfVtxM2UdrxvkIZM-4" target="bNzYxfVtxM2UdrxvkIZM-13">
          <mxGeometry relative="1" as="geometry"/>
        </mxCell>
        <mxCell id="bNzYxfVtxM2UdrxvkIZM-3" style="edgeStyle=none;rounded=0;orthogonalLoop=1;jettySize=auto;html=1;exitX=0.5;exitY=1;exitDx=0;exitDy=0;fontSize=11;" edge="1" parent="1" source="bNzYxfVtxM2UdrxvkIZM-4" target="bNzYxfVtxM2UdrxvkIZM-12">
          <mxGeometry relative="1" as="geometry"/>
        </mxCell>
        <mxCell id="bNzYxfVtxM2UdrxvkIZM-4" value="`0,0`" style="ellipse;whiteSpace=wrap;html=1;aspect=fixed;fontSize=11;" vertex="1" parent="1">
          <mxGeometry x="520" y="1080" width="40" height="40" as="geometry"/>
        </mxCell>
        <mxCell id="bNzYxfVtxM2UdrxvkIZM-5" style="edgeStyle=none;rounded=0;orthogonalLoop=1;jettySize=auto;html=1;exitX=0.5;exitY=1;exitDx=0;exitDy=0;entryX=0.5;entryY=0;entryDx=0;entryDy=0;startArrow=classic;startFill=1;fontSize=11;" edge="1" parent="1" source="bNzYxfVtxM2UdrxvkIZM-8" target="bNzYxfVtxM2UdrxvkIZM-14">
          <mxGeometry relative="1" as="geometry"/>
        </mxCell>
        <mxCell id="bNzYxfVtxM2UdrxvkIZM-6" style="edgeStyle=none;rounded=0;orthogonalLoop=1;jettySize=auto;html=1;exitX=0.5;exitY=1;exitDx=0;exitDy=0;entryX=0.5;entryY=0;entryDx=0;entryDy=0;startArrow=classic;startFill=1;fontSize=11;" edge="1" parent="1" source="bNzYxfVtxM2UdrxvkIZM-8" target="bNzYxfVtxM2UdrxvkIZM-18">
          <mxGeometry relative="1" as="geometry"/>
        </mxCell>
        <mxCell id="bNzYxfVtxM2UdrxvkIZM-7" style="edgeStyle=none;rounded=0;orthogonalLoop=1;jettySize=auto;html=1;exitX=0.5;exitY=1;exitDx=0;exitDy=0;entryX=0.5;entryY=0;entryDx=0;entryDy=0;startArrow=classic;startFill=1;fontSize=11;" edge="1" parent="1" source="bNzYxfVtxM2UdrxvkIZM-8" target="bNzYxfVtxM2UdrxvkIZM-20">
          <mxGeometry relative="1" as="geometry"/>
        </mxCell>
        <mxCell id="bNzYxfVtxM2UdrxvkIZM-89" style="edgeStyle=none;rounded=0;orthogonalLoop=1;jettySize=auto;html=1;exitX=0.5;exitY=1;exitDx=0;exitDy=0;entryX=0.5;entryY=0;entryDx=0;entryDy=0;startArrow=classic;startFill=1;fontSize=7;" edge="1" parent="1" source="bNzYxfVtxM2UdrxvkIZM-8" target="bNzYxfVtxM2UdrxvkIZM-88">
          <mxGeometry relative="1" as="geometry"/>
        </mxCell>
        <mxCell id="bNzYxfVtxM2UdrxvkIZM-8" value="`0,0+1`" style="ellipse;whiteSpace=wrap;html=1;aspect=fixed;fontSize=11;opacity=30;" vertex="1" parent="1">
          <mxGeometry x="280" y="1160" width="40" height="40" as="geometry"/>
        </mxCell>
        <mxCell id="bNzYxfVtxM2UdrxvkIZM-12" value="`(m-1)%m,y`" style="ellipse;whiteSpace=wrap;html=1;aspect=fixed;fontSize=11;opacity=30;" vertex="1" parent="1">
          <mxGeometry x="520" y="1160" width="40" height="40" as="geometry"/>
        </mxCell>
        <mxCell id="bNzYxfVtxM2UdrxvkIZM-13" value="&lt;span style=&quot;font-size: 11px&quot;&gt;`(m+1)%m,y`&lt;/span&gt;" style="ellipse;whiteSpace=wrap;html=1;aspect=fixed;fontSize=11;opacity=30;" vertex="1" parent="1">
          <mxGeometry x="760" y="1160" width="40" height="40" as="geometry"/>
        </mxCell>
        <mxCell id="bNzYxfVtxM2UdrxvkIZM-61" style="edgeStyle=orthogonalEdgeStyle;rounded=0;orthogonalLoop=1;jettySize=auto;html=1;exitX=0.5;exitY=1;exitDx=0;exitDy=0;startArrow=none;startFill=0;fontSize=7;" edge="1" parent="1" source="bNzYxfVtxM2UdrxvkIZM-14" target="bNzYxfVtxM2UdrxvkIZM-60">
          <mxGeometry relative="1" as="geometry"/>
        </mxCell>
        <mxCell id="bNzYxfVtxM2UdrxvkIZM-62" style="rounded=0;orthogonalLoop=1;jettySize=auto;html=1;exitX=0.5;exitY=1;exitDx=0;exitDy=0;entryX=0.5;entryY=0;entryDx=0;entryDy=0;startArrow=none;startFill=0;fontSize=7;" edge="1" parent="1" source="bNzYxfVtxM2UdrxvkIZM-14" target="bNzYxfVtxM2UdrxvkIZM-59">
          <mxGeometry relative="1" as="geometry"/>
        </mxCell>
        <mxCell id="bNzYxfVtxM2UdrxvkIZM-14" value="`0,0`" style="ellipse;whiteSpace=wrap;html=1;aspect=fixed;fontSize=11;" vertex="1" parent="1">
          <mxGeometry x="200" y="1240" width="40" height="40" as="geometry"/>
        </mxCell>
        <mxCell id="bNzYxfVtxM2UdrxvkIZM-70" style="edgeStyle=none;rounded=0;orthogonalLoop=1;jettySize=auto;html=1;exitX=0.5;exitY=1;exitDx=0;exitDy=0;entryX=0.5;entryY=0;entryDx=0;entryDy=0;startArrow=none;startFill=0;fontSize=7;" edge="1" parent="1" source="bNzYxfVtxM2UdrxvkIZM-18" target="bNzYxfVtxM2UdrxvkIZM-67">
          <mxGeometry relative="1" as="geometry"/>
        </mxCell>
        <mxCell id="bNzYxfVtxM2UdrxvkIZM-71" style="edgeStyle=none;rounded=0;orthogonalLoop=1;jettySize=auto;html=1;exitX=0.5;exitY=1;exitDx=0;exitDy=0;entryX=0.5;entryY=0;entryDx=0;entryDy=0;startArrow=none;startFill=0;fontSize=7;" edge="1" parent="1" source="bNzYxfVtxM2UdrxvkIZM-18" target="bNzYxfVtxM2UdrxvkIZM-68">
          <mxGeometry relative="1" as="geometry"/>
        </mxCell>
        <mxCell id="bNzYxfVtxM2UdrxvkIZM-72" style="edgeStyle=none;rounded=0;orthogonalLoop=1;jettySize=auto;html=1;exitX=0.5;exitY=1;exitDx=0;exitDy=0;entryX=0.5;entryY=0;entryDx=0;entryDy=0;startArrow=none;startFill=0;fontSize=7;" edge="1" parent="1" source="bNzYxfVtxM2UdrxvkIZM-18" target="bNzYxfVtxM2UdrxvkIZM-69">
          <mxGeometry relative="1" as="geometry"/>
        </mxCell>
        <mxCell id="bNzYxfVtxM2UdrxvkIZM-18" value="`0,2`" style="ellipse;whiteSpace=wrap;html=1;aspect=fixed;fontSize=11;" vertex="1" parent="1">
          <mxGeometry x="280" y="1240" width="40" height="40" as="geometry"/>
        </mxCell>
        <mxCell id="bNzYxfVtxM2UdrxvkIZM-85" style="edgeStyle=none;rounded=0;orthogonalLoop=1;jettySize=auto;html=1;exitX=0.5;exitY=1;exitDx=0;exitDy=0;entryX=0.5;entryY=0;entryDx=0;entryDy=0;startArrow=none;startFill=0;fontSize=7;" edge="1" parent="1" source="bNzYxfVtxM2UdrxvkIZM-20" target="bNzYxfVtxM2UdrxvkIZM-79">
          <mxGeometry relative="1" as="geometry"/>
        </mxCell>
        <mxCell id="bNzYxfVtxM2UdrxvkIZM-86" style="edgeStyle=none;rounded=0;orthogonalLoop=1;jettySize=auto;html=1;exitX=0.5;exitY=1;exitDx=0;exitDy=0;entryX=0.5;entryY=0;entryDx=0;entryDy=0;startArrow=none;startFill=0;fontSize=7;" edge="1" parent="1" source="bNzYxfVtxM2UdrxvkIZM-20" target="bNzYxfVtxM2UdrxvkIZM-59">
          <mxGeometry relative="1" as="geometry"/>
        </mxCell>
        <mxCell id="bNzYxfVtxM2UdrxvkIZM-87" style="edgeStyle=none;rounded=0;orthogonalLoop=1;jettySize=auto;html=1;exitX=0.5;exitY=1;exitDx=0;exitDy=0;startArrow=none;startFill=0;fontSize=7;" edge="1" parent="1" source="bNzYxfVtxM2UdrxvkIZM-20" target="bNzYxfVtxM2UdrxvkIZM-68">
          <mxGeometry relative="1" as="geometry"/>
        </mxCell>
        <mxCell id="bNzYxfVtxM2UdrxvkIZM-20" value="`m-1,1`" style="ellipse;whiteSpace=wrap;html=1;aspect=fixed;fontSize=11;opacity=30;" vertex="1" parent="1">
          <mxGeometry x="360" y="1240" width="40" height="40" as="geometry"/>
        </mxCell>
        <mxCell id="bNzYxfVtxM2UdrxvkIZM-64" style="edgeStyle=none;rounded=0;orthogonalLoop=1;jettySize=auto;html=1;exitX=0.5;exitY=1;exitDx=0;exitDy=0;startArrow=none;startFill=0;fontSize=7;" edge="1" parent="1" source="bNzYxfVtxM2UdrxvkIZM-59">
          <mxGeometry relative="1" as="geometry">
            <mxPoint x="139.0344827586207" y="1400" as="targetPoint"/>
          </mxGeometry>
        </mxCell>
        <mxCell id="bNzYxfVtxM2UdrxvkIZM-59" value="`m-1,0`" style="ellipse;whiteSpace=wrap;html=1;aspect=fixed;fontSize=11;opacity=30;" vertex="1" parent="1">
          <mxGeometry x="119" y="1320" width="40" height="40" as="geometry"/>
        </mxCell>
        <mxCell id="bNzYxfVtxM2UdrxvkIZM-60" value="`1,0`" style="ellipse;whiteSpace=wrap;html=1;aspect=fixed;fontSize=11;" vertex="1" parent="1">
          <mxGeometry x="200" y="1320" width="40" height="40" as="geometry"/>
        </mxCell>
        <mxCell id="bNzYxfVtxM2UdrxvkIZM-63" value="" style="endArrow=none;html=1;fontSize=7;" edge="1" parent="1">
          <mxGeometry width="50" height="50" relative="1" as="geometry">
            <mxPoint x="200" y="1370" as="sourcePoint"/>
            <mxPoint x="240" y="1370" as="targetPoint"/>
          </mxGeometry>
        </mxCell>
        <mxCell id="bNzYxfVtxM2UdrxvkIZM-65" value=". . .&amp;nbsp;" style="text;html=1;align=center;verticalAlign=middle;resizable=0;points=[];autosize=1;fontSize=7;" vertex="1" parent="1">
          <mxGeometry x="124" y="1410" width="30" height="10" as="geometry"/>
        </mxCell>
        <mxCell id="bNzYxfVtxM2UdrxvkIZM-66" value="" style="endArrow=none;html=1;fontSize=7;" edge="1" parent="1">
          <mxGeometry width="50" height="50" relative="1" as="geometry">
            <mxPoint x="200" y="1373" as="sourcePoint"/>
            <mxPoint x="240" y="1373" as="targetPoint"/>
          </mxGeometry>
        </mxCell>
        <mxCell id="bNzYxfVtxM2UdrxvkIZM-67" value="`0,3`" style="ellipse;whiteSpace=wrap;html=1;aspect=fixed;fontSize=11;" vertex="1" parent="1">
          <mxGeometry x="281" y="1320" width="40" height="40" as="geometry"/>
        </mxCell>
        <mxCell id="bNzYxfVtxM2UdrxvkIZM-68" value="`m-1,2`" style="ellipse;whiteSpace=wrap;html=1;aspect=fixed;fontSize=11;opacity=30;" vertex="1" parent="1">
          <mxGeometry x="360" y="1320" width="40" height="40" as="geometry"/>
        </mxCell>
        <mxCell id="bNzYxfVtxM2UdrxvkIZM-69" value="`1,2`" style="ellipse;whiteSpace=wrap;html=1;aspect=fixed;fontSize=11;" vertex="1" parent="1">
          <mxGeometry x="440" y="1320" width="40" height="40" as="geometry"/>
        </mxCell>
        <mxCell id="bNzYxfVtxM2UdrxvkIZM-73" style="edgeStyle=none;rounded=0;orthogonalLoop=1;jettySize=auto;html=1;exitX=0.5;exitY=1;exitDx=0;exitDy=0;startArrow=none;startFill=0;fontSize=7;" edge="1" parent="1">
          <mxGeometry relative="1" as="geometry">
            <mxPoint x="301.0344827586207" y="1400" as="targetPoint"/>
            <mxPoint x="301" y="1360" as="sourcePoint"/>
          </mxGeometry>
        </mxCell>
        <mxCell id="bNzYxfVtxM2UdrxvkIZM-74" value=". . .&amp;nbsp;" style="text;html=1;align=center;verticalAlign=middle;resizable=0;points=[];autosize=1;fontSize=7;" vertex="1" parent="1">
          <mxGeometry x="286" y="1410" width="30" height="10" as="geometry"/>
        </mxCell>
        <mxCell id="bNzYxfVtxM2UdrxvkIZM-75" style="edgeStyle=none;rounded=0;orthogonalLoop=1;jettySize=auto;html=1;exitX=0.5;exitY=1;exitDx=0;exitDy=0;startArrow=none;startFill=0;fontSize=7;" edge="1" parent="1">
          <mxGeometry relative="1" as="geometry">
            <mxPoint x="380.0344827586207" y="1400" as="targetPoint"/>
            <mxPoint x="380" y="1360" as="sourcePoint"/>
          </mxGeometry>
        </mxCell>
        <mxCell id="bNzYxfVtxM2UdrxvkIZM-76" value=". . .&amp;nbsp;" style="text;html=1;align=center;verticalAlign=middle;resizable=0;points=[];autosize=1;fontSize=7;" vertex="1" parent="1">
          <mxGeometry x="365" y="1410" width="30" height="10" as="geometry"/>
        </mxCell>
        <mxCell id="bNzYxfVtxM2UdrxvkIZM-77" style="edgeStyle=none;rounded=0;orthogonalLoop=1;jettySize=auto;html=1;exitX=0.5;exitY=1;exitDx=0;exitDy=0;startArrow=none;startFill=0;fontSize=7;" edge="1" parent="1">
          <mxGeometry relative="1" as="geometry">
            <mxPoint x="460.0344827586207" y="1400" as="targetPoint"/>
            <mxPoint x="460" y="1360" as="sourcePoint"/>
          </mxGeometry>
        </mxCell>
        <mxCell id="bNzYxfVtxM2UdrxvkIZM-78" value=". . .&amp;nbsp;" style="text;html=1;align=center;verticalAlign=middle;resizable=0;points=[];autosize=1;fontSize=7;" vertex="1" parent="1">
          <mxGeometry x="445" y="1410" width="30" height="10" as="geometry"/>
        </mxCell>
        <mxCell id="bNzYxfVtxM2UdrxvkIZM-79" value="`m-2,1`" style="ellipse;whiteSpace=wrap;html=1;aspect=fixed;fontSize=11;opacity=30;" vertex="1" parent="1">
          <mxGeometry x="520" y="1320" width="40" height="40" as="geometry"/>
        </mxCell>
        <mxCell id="bNzYxfVtxM2UdrxvkIZM-80" value="`2,1`" style="ellipse;whiteSpace=wrap;html=1;aspect=fixed;fontSize=11;" vertex="1" parent="1">
          <mxGeometry x="600" y="1320" width="40" height="40" as="geometry"/>
        </mxCell>
        <mxCell id="bNzYxfVtxM2UdrxvkIZM-81" style="edgeStyle=none;rounded=0;orthogonalLoop=1;jettySize=auto;html=1;exitX=0.5;exitY=1;exitDx=0;exitDy=0;startArrow=none;startFill=0;fontSize=7;" edge="1" parent="1">
          <mxGeometry relative="1" as="geometry">
            <mxPoint x="540.0344827586207" y="1240" as="targetPoint"/>
            <mxPoint x="540" y="1200" as="sourcePoint"/>
          </mxGeometry>
        </mxCell>
        <mxCell id="bNzYxfVtxM2UdrxvkIZM-82" value=". . .&amp;nbsp;" style="text;html=1;align=center;verticalAlign=middle;resizable=0;points=[];autosize=1;fontSize=7;" vertex="1" parent="1">
          <mxGeometry x="525" y="1250" width="30" height="10" as="geometry"/>
        </mxCell>
        <mxCell id="bNzYxfVtxM2UdrxvkIZM-83" style="edgeStyle=none;rounded=0;orthogonalLoop=1;jettySize=auto;html=1;exitX=0.5;exitY=1;exitDx=0;exitDy=0;startArrow=none;startFill=0;fontSize=7;" edge="1" parent="1">
          <mxGeometry relative="1" as="geometry">
            <mxPoint x="780.0344827586207" y="1240" as="targetPoint"/>
            <mxPoint x="780" y="1200" as="sourcePoint"/>
          </mxGeometry>
        </mxCell>
        <mxCell id="bNzYxfVtxM2UdrxvkIZM-84" value=". . .&amp;nbsp;" style="text;html=1;align=center;verticalAlign=middle;resizable=0;points=[];autosize=1;fontSize=7;" vertex="1" parent="1">
          <mxGeometry x="765" y="1250" width="30" height="10" as="geometry"/>
        </mxCell>
        <mxCell id="bNzYxfVtxM2UdrxvkIZM-90" style="edgeStyle=none;rounded=0;orthogonalLoop=1;jettySize=auto;html=1;exitX=0.5;exitY=1;exitDx=0;exitDy=0;entryX=0.5;entryY=0;entryDx=0;entryDy=0;startArrow=classic;startFill=1;fontSize=7;" edge="1" parent="1" source="bNzYxfVtxM2UdrxvkIZM-88" target="bNzYxfVtxM2UdrxvkIZM-60">
          <mxGeometry relative="1" as="geometry"/>
        </mxCell>
        <mxCell id="bNzYxfVtxM2UdrxvkIZM-91" style="edgeStyle=none;rounded=0;orthogonalLoop=1;jettySize=auto;html=1;exitX=0.5;exitY=1;exitDx=0;exitDy=0;entryX=0.5;entryY=0;entryDx=0;entryDy=0;startArrow=classic;startFill=1;fontSize=7;" edge="1" parent="1" source="bNzYxfVtxM2UdrxvkIZM-88" target="bNzYxfVtxM2UdrxvkIZM-69">
          <mxGeometry relative="1" as="geometry"/>
        </mxCell>
        <mxCell id="bNzYxfVtxM2UdrxvkIZM-92" style="edgeStyle=none;rounded=0;orthogonalLoop=1;jettySize=auto;html=1;exitX=0.5;exitY=1;exitDx=0;exitDy=0;entryX=0.5;entryY=0;entryDx=0;entryDy=0;startArrow=classic;startFill=1;fontSize=7;" edge="1" parent="1" source="bNzYxfVtxM2UdrxvkIZM-88" target="bNzYxfVtxM2UdrxvkIZM-80">
          <mxGeometry relative="1" as="geometry"/>
        </mxCell>
        <mxCell id="bNzYxfVtxM2UdrxvkIZM-88" value="`1,1`" style="ellipse;whiteSpace=wrap;html=1;aspect=fixed;fontSize=11;" vertex="1" parent="1">
          <mxGeometry x="440" y="1240" width="40" height="40" as="geometry"/>
        </mxCell>
        <mxCell id="bNzYxfVtxM2UdrxvkIZM-93" value="" style="endArrow=none;html=1;fontSize=7;" edge="1" parent="1">
          <mxGeometry width="50" height="50" relative="1" as="geometry">
            <mxPoint x="600" y="1370" as="sourcePoint"/>
            <mxPoint x="640" y="1370" as="targetPoint"/>
          </mxGeometry>
        </mxCell>
        <mxCell id="bNzYxfVtxM2UdrxvkIZM-94" value="" style="endArrow=none;html=1;fontSize=7;" edge="1" parent="1">
          <mxGeometry width="50" height="50" relative="1" as="geometry">
            <mxPoint x="600" y="1373" as="sourcePoint"/>
            <mxPoint x="640" y="1373" as="targetPoint"/>
          </mxGeometry>
        </mxCell>
        <mxCell id="bNzYxfVtxM2UdrxvkIZM-95" style="edgeStyle=none;rounded=0;orthogonalLoop=1;jettySize=auto;html=1;exitX=0.5;exitY=1;exitDx=0;exitDy=0;startArrow=none;startFill=0;fontSize=7;" edge="1" parent="1">
          <mxGeometry relative="1" as="geometry">
            <mxPoint x="540.0344827586207" y="1400" as="targetPoint"/>
            <mxPoint x="540.0000000000002" y="1360" as="sourcePoint"/>
          </mxGeometry>
        </mxCell>
        <mxCell id="bNzYxfVtxM2UdrxvkIZM-96" value=". . .&amp;nbsp;" style="text;html=1;align=center;verticalAlign=middle;resizable=0;points=[];autosize=1;fontSize=7;" vertex="1" parent="1">
          <mxGeometry x="525" y="1410" width="30" height="10" as="geometry"/>
        </mxCell>
        <mxCell id="bNzYxfVtxM2UdrxvkIZM-105" style="edgeStyle=none;rounded=0;orthogonalLoop=1;jettySize=auto;html=1;exitX=0.5;exitY=1;exitDx=0;exitDy=0;startArrow=none;startFill=0;fontSize=7;" edge="1" parent="1" source="bNzYxfVtxM2UdrxvkIZM-101" target="bNzYxfVtxM2UdrxvkIZM-103">
          <mxGeometry relative="1" as="geometry"/>
        </mxCell>
        <mxCell id="bNzYxfVtxM2UdrxvkIZM-106" style="edgeStyle=none;rounded=0;orthogonalLoop=1;jettySize=auto;html=1;exitX=0.5;exitY=1;exitDx=0;exitDy=0;entryX=0.5;entryY=0;entryDx=0;entryDy=0;startArrow=classic;startFill=1;fontSize=7;" edge="1" parent="1" source="bNzYxfVtxM2UdrxvkIZM-101" target="bNzYxfVtxM2UdrxvkIZM-102">
          <mxGeometry relative="1" as="geometry"/>
        </mxCell>
        <mxCell id="bNzYxfVtxM2UdrxvkIZM-101" value="`0,0`" style="ellipse;whiteSpace=wrap;html=1;aspect=fixed;fontSize=11;" vertex="1" parent="1">
          <mxGeometry x="1080" y="1040" width="40" height="40" as="geometry"/>
        </mxCell>
        <mxCell id="bNzYxfVtxM2UdrxvkIZM-108" style="edgeStyle=none;rounded=0;orthogonalLoop=1;jettySize=auto;html=1;exitX=0.5;exitY=1;exitDx=0;exitDy=0;entryX=0.5;entryY=0;entryDx=0;entryDy=0;startArrow=classic;startFill=1;fontSize=7;" edge="1" parent="1" source="bNzYxfVtxM2UdrxvkIZM-102" target="bNzYxfVtxM2UdrxvkIZM-107">
          <mxGeometry relative="1" as="geometry"/>
        </mxCell>
        <mxCell id="bNzYxfVtxM2UdrxvkIZM-102" value="`0,1`" style="ellipse;whiteSpace=wrap;html=1;aspect=fixed;fontSize=11;" vertex="1" parent="1">
          <mxGeometry x="1000" y="1120" width="40" height="40" as="geometry"/>
        </mxCell>
        <mxCell id="bNzYxfVtxM2UdrxvkIZM-103" value="`1,0`" style="ellipse;whiteSpace=wrap;html=1;aspect=fixed;fontSize=11;" vertex="1" parent="1">
          <mxGeometry x="1080" y="1120" width="40" height="40" as="geometry"/>
        </mxCell>
        <mxCell id="bNzYxfVtxM2UdrxvkIZM-113" style="edgeStyle=none;rounded=0;orthogonalLoop=1;jettySize=auto;html=1;exitX=1;exitY=0.5;exitDx=0;exitDy=0;entryX=0;entryY=0.5;entryDx=0;entryDy=0;startArrow=none;startFill=0;fontSize=7;" edge="1" parent="1" source="bNzYxfVtxM2UdrxvkIZM-107" target="bNzYxfVtxM2UdrxvkIZM-103">
          <mxGeometry relative="1" as="geometry"/>
        </mxCell>
        <mxCell id="bNzYxfVtxM2UdrxvkIZM-107" value="`1,1`" style="ellipse;whiteSpace=wrap;html=1;aspect=fixed;fontSize=11;" vertex="1" parent="1">
          <mxGeometry x="1000" y="1200" width="40" height="40" as="geometry"/>
        </mxCell>
        <mxCell id="bNzYxfVtxM2UdrxvkIZM-109" value="" style="endArrow=none;html=1;fontSize=7;" edge="1" parent="1">
          <mxGeometry width="50" height="50" relative="1" as="geometry">
            <mxPoint x="1080.0000000000002" y="1168.48" as="sourcePoint"/>
            <mxPoint x="1120.0000000000002" y="1168.48" as="targetPoint"/>
          </mxGeometry>
        </mxCell>
        <mxCell id="bNzYxfVtxM2UdrxvkIZM-110" value="" style="endArrow=none;html=1;fontSize=7;" edge="1" parent="1">
          <mxGeometry width="50" height="50" relative="1" as="geometry">
            <mxPoint x="1080.0000000000002" y="1171.48" as="sourcePoint"/>
            <mxPoint x="1120.0000000000002" y="1171.48" as="targetPoint"/>
          </mxGeometry>
        </mxCell>
      </root>
    </mxGraphModel>
  </diagram>
</mxfile>
